<svg width="48" height="48" viewBox="0 0 48 48" fill="none" xmlns="http://www.w3.org/2000/svg">
<path d="M24 12C18.66 12 15.34 14.66 14 20C16 17.34 18.34 16.34 21 17C22.52 17.38 23.62 18.48 24.82 19.7C26.78 21.7 29 24 34 24C39.34 24 42.66 21.34 44 16C42 18.66 39.66 19.66 37 19C35.48 18.62 34.4 17.52 33.18 16.3C31.22 14.3 29 12 24 12ZM14 24C8.66 24 5.34 26.66 4 32C6 29.34 8.34 28.34 11 29C12.52 29.38 13.6 30.48 14.82 31.7C16.78 33.7 19 36 24 36C29.34 36 32.66 33.34 34 28C32 30.66 29.66 31.66 27 31C25.48 30.62 24.4 29.52 23.18 28.3C21.22 26.3 19 24 14 24Z" fill="#5D62DF"/>
</svg>
